<?xml version="1.0" encoding="UTF-8" standalone="no"?>
<!DOCTYPE svg PUBLIC "-//W3C//DTD SVG 1.1//EN" "http://www.w3.org/Graphics/SVG/1.1/DTD/svg11.dtd">
<!-- Generated by Microsoft Visio, SVG Export restier2.svg Page-1 -->
<svg xmlns="http://www.w3.org/2000/svg" xmlns:xlink="http://www.w3.org/1999/xlink" xmlns:ev="http://www.w3.org/2001/xml-events"
		width="8.95732in" height="3.26583in" viewBox="0 0 644.927 235.14" xml:space="preserve" color-interpolation-filters="sRGB"
		class="st13">
	<style type="text/css">
	<![CDATA[
		.st1 {fill:#ffffff;stroke:#000000;stroke-linecap:round;stroke-linejoin:round;stroke-width:0.75}
		.st2 {fill:#000000;font-family:Calibri;font-size:0.833336em;font-stretch:semi-expanded}
		.st3 {fill:#ffffff;stroke:#000000;stroke-dasharray:5.25,3.75;stroke-linecap:round;stroke-linejoin:round;stroke-width:0.75}
		.st4 {fill:#000000;font-family:Calibri;font-size:0.75em;font-stretch:semi-expanded}
		.st5 {fill:#000000;font-family:Calibri;font-size:0.666664em;font-stretch:semi-expanded}
		.st6 {fill:#000000;font-family:Calibri;font-size:0.499992em;font-stretch:semi-expanded}
		.st7 {font-size:1em}
		.st8 {marker-end:url(#mrkr1-393);marker-start:url(#mrkr1-391);stroke:#000000;stroke-linecap:round;stroke-linejoin:round;stroke-width:0.75}
		.st9 {fill:#000000;fill-opacity:1;stroke:#000000;stroke-opacity:1;stroke-width:0.22935779816514}
		.st10 {fill:#ffffff;stroke:#000000;stroke-linecap:round;stroke-linejoin:round;stroke-width:0.24}
		.st11 {fill:#000000;font-family:Calibri;font-size:0.666664em}
		.st12 {fill:#000000;font-family:Calibri;font-size:1.00001em}
		.st13 {fill:none;fill-rule:evenodd;font-size:12px;overflow:visible;stroke-linecap:square;stroke-miterlimit:3}
	]]>
	</style>

	<defs id="Patterns_And_Gradients">
		<linearGradient id="grad0-11" x1="0" y1="0" x2="1" y2="0" gradientTransform="rotate(90 0.5 0.5)">
			<stop offset="0.01" stop-color="#ffffff" stop-opacity="1"/>
			<stop offset="0.5" stop-color="#fefefe" stop-opacity="1"/>
			<stop offset="1" stop-color="#ffffff" stop-opacity="1"/>
		</linearGradient>
		<linearGradient id="grad0-15" x1="0" y1="0" x2="1" y2="0" gradientTransform="rotate(270 0.5 0.5)">
			<stop offset="0" stop-color="#fefefe" stop-opacity="1"/>
			<stop offset="1" stop-color="#ffffff" stop-opacity="1"/>
		</linearGradient>
	</defs>
	<defs id="Markers">
		<g id="lend1">
			<path d="M 1 -1 L 0 0 L 1 1 " style="stroke-linecap:round;stroke-linejoin:round;fill:none"/>
		</g>
		<marker id="mrkr1-391" class="st9" orient="auto" markerUnits="strokeWidth" overflow="visible">
			<use xlink:href="#lend1" transform="scale(4.36) "/>
		</marker>
		<marker id="mrkr1-393" class="st9" orient="auto" markerUnits="strokeWidth" overflow="visible">
			<use xlink:href="#lend1" transform="scale(-4.36,-4.36) "/>
		</marker>
	</defs>
	<g>
		<title>Page-1</title>
		<g id="group1000-1" transform="translate(101.766,-2.88)">
			<title>Subsystem.1000</title>
			<g id="group1001-2">
				<title>Sheet.1001</title>
				<g id="shape1002-3" transform="translate(2.88,2.88)">
					<title>Sheet.1002</title>
				</g>
				<g id="shape1001-5">
					<path d="M0 235.14 L226.75 235.14 L453.51 235.14 L453.51 3.25 L226.75 3.25 L0 3.25 L0 235.14 Z" class="st1"/>
				</g>
			</g>
			<g id="group1003-7" transform="translate(0,-209.385)">
				<title>Sheet.1003</title>
				<desc>Restier Framework</desc>
				<g id="shape1004-8">
					<title>Sheet.1004</title>
				</g>
				<g id="shape1003-12">
					<text x="6" y="226.89" class="st2">Restier Framework</text>				</g>
			</g>
		</g>
		<g id="group1005-17" transform="translate(131.016,-35.64)">
			<title>Subsystem.1005</title>
			<g id="group1006-18">
				<title>Sheet.1006</title>
				<g id="shape1007-19" transform="translate(2.88,2.88)">
					<title>Sheet.1007</title>
				</g>
				<g id="shape1006-21">
					<path d="M0 235.14 L33.75 235.14 L67.5 235.14 L67.5 68.64 L33.75 68.64 L0 68.64 L0 235.14 Z" class="st3"/>
				</g>
			</g>
			<g id="group1008-23" transform="translate(0,-144)">
				<title>Sheet.1008</title>
				<desc>Publisher</desc>
				<g id="shape1009-24">
					<title>Sheet.1009</title>
				</g>
				<g id="shape1008-27">
					<text x="6" y="226.89" class="st2">Publisher</text>				</g>
			</g>
		</g>
		<g id="group1012-31" transform="translate(439.266,-35.64)">
			<title>Subsystem.1012</title>
			<g id="group1013-32">
				<title>Sheet.1013</title>
				<g id="shape1014-33" transform="translate(2.88,2.88)">
					<title>Sheet.1014</title>
				</g>
				<g id="shape1013-35">
					<path d="M0 235.14 L33.89 235.14 L67.78 235.14 L67.78 67.51 L33.89 67.51 L0 67.51 L0 235.14 Z" class="st3"/>
				</g>
			</g>
			<g id="group1015-37" transform="translate(0,-145.125)">
				<title>Sheet.1015</title>
				<desc>Provider</desc>
				<g id="shape1016-38">
					<title>Sheet.1016</title>
				</g>
				<g id="shape1015-41">
					<text x="6" y="226.89" class="st2">Provider</text>				</g>
			</g>
		</g>
		<g id="group1017-45" transform="translate(216.516,-109.89)">
			<title>Subsystem.1017</title>
			<g id="group1018-46">
				<title>Sheet.1018</title>
				<g id="shape1019-47" transform="translate(2.88,2.88)">
					<title>Sheet.1019</title>
				</g>
				<g id="shape1018-49">
					<path d="M0 235.14 L101.25 235.14 L202.5 235.14 L202.5 142.89 L101.25 142.89 L0 142.89 L0 235.14 Z" class="st3"/>
				</g>
			</g>
			<g id="group1020-51" transform="translate(0,-69.75)">
				<title>Sheet.1020</title>
				<desc>Core</desc>
				<g id="shape1021-52">
					<title>Sheet.1021</title>
				</g>
				<g id="shape1020-55">
					<text x="6" y="226.89" class="st2">Core</text>				</g>
			</g>
		</g>
		<g id="group1022-59" transform="translate(216.516,-35.64)">
			<title>Subsystem.1022</title>
			<g id="group1023-60">
				<title>Sheet.1023</title>
				<g id="shape1024-61" transform="translate(2.88,2.88)">
					<title>Sheet.1024</title>
				</g>
				<g id="shape1023-63">
					<path d="M0 235.14 L101.25 235.14 L202.5 235.14 L202.5 174.39 L101.25 174.39 L0 174.39 L0 235.14 Z" class="st3"/>
				</g>
			</g>
			<g id="group1025-65" transform="translate(0,-38.25)">
				<title>Sheet.1025</title>
				<desc>Module</desc>
				<g id="shape1026-66">
					<title>Sheet.1026</title>
				</g>
				<g id="shape1025-69">
					<text x="6" y="226.89" class="st2">Module</text>				</g>
			</g>
		</g>
		<g id="group1027-73" transform="translate(230.016,-44.64)">
			<title>Subsystem.1027</title>
			<g id="group1028-74">
				<title>Sheet.1028</title>
				<g id="shape1029-75" transform="translate(2.88,2.88)">
					<title>Sheet.1029</title>
				</g>
				<g id="shape1028-77">
					<path d="M0 235.14 L26.72 235.14 L53.44 235.14 L53.44 214.89 L26.72 214.89 L0 214.89 L0 235.14 Z" class="st1"/>
				</g>
			</g>
			<g id="group1030-79" transform="translate(0,2.25)">
				<title>Sheet.1030</title>
				<desc>Auth</desc>
				<g id="shape1031-80">
					<title>Sheet.1031</title>
				</g>
				<g id="shape1030-83">
					<text x="17" y="226.59" class="st4">Auth</text>				</g>
			</g>
		</g>
		<g id="group1032-87" transform="translate(140.016,-150.39)">
			<title>Subsystem.1032</title>
			<g id="group1033-88">
				<title>Sheet.1033</title>
				<g id="shape1034-89" transform="translate(2.88,2.88)">
					<title>Sheet.1034</title>
				</g>
				<g id="shape1033-91">
					<path d="M0 235.14 L24.75 235.14 L49.5 235.14 L49.5 214.89 L24.75 214.89 L0 214.89 L0 235.14 Z" class="st1"/>
				</g>
			</g>
			<g id="group1035-93" transform="translate(0,2.25)">
				<title>Sheet.1035</title>
				<desc>WebAPI</desc>
				<g id="shape1036-94">
					<title>Sheet.1036</title>
				</g>
				<g id="shape1035-97">
					<text x="8.61" y="226.59" class="st4">WebAPI</text>				</g>
			</g>
		</g>
		<g id="group1037-101" transform="translate(448.266,-150.39)">
			<title>Subsystem.1037</title>
			<g id="group1038-102">
				<title>Sheet.1038</title>
				<g id="shape1039-103" transform="translate(2.88,2.88)">
					<title>Sheet.1039</title>
				</g>
				<g id="shape1038-105">
					<path d="M0 235.14 L24.75 235.14 L49.5 235.14 L49.5 214.89 L24.75 214.89 L0 214.89 L0 235.14 Z" class="st1"/>
				</g>
			</g>
			<g id="group1040-107" transform="translate(0,-2.25)">
				<title>Sheet.1040</title>
				<desc>EF</desc>
				<g id="shape1041-108">
					<title>Sheet.1041</title>
				</g>
				<g id="shape1040-111">
					<text x="20.58" y="228.54" class="st5">EF</text>				</g>
			</g>
		</g>
		<g id="group1042-115" transform="translate(448.266,-118.89)">
			<title>Subsystem.1042</title>
			<g id="group1043-116">
				<title>Sheet.1043</title>
				<g id="shape1044-117" transform="translate(2.88,2.88)">
					<title>Sheet.1044</title>
				</g>
				<g id="shape1043-119">
					<path d="M0 235.14 L24.75 235.14 L49.5 235.14 L49.5 214.89 L24.75 214.89 L0 214.89 L0 235.14 Z" class="st1"/>
				</g>
			</g>
			<g id="group1045-121" transform="translate(0,-2.25)">
				<title>Sheet.1045</title>
				<desc>ADO.NET</desc>
				<g id="shape1046-122">
					<title>Sheet.1046</title>
				</g>
				<g id="shape1045-125">
					<text x="8.34" y="228.54" class="st5">ADO.NET</text>				</g>
			</g>
		</g>
		<g id="group1047-129" transform="translate(448.547,-87.39)">
			<title>Subsystem.1047</title>
			<g id="group1048-130">
				<title>Sheet.1048</title>
				<g id="shape1049-131" transform="translate(2.88,2.88)">
					<title>Sheet.1049</title>
				</g>
				<g id="shape1048-133">
					<path d="M0 235.14 L24.75 235.14 L49.5 235.14 L49.5 214.89 L24.75 214.89 L0 214.89 L0 235.14 Z" class="st1"/>
				</g>
			</g>
			<g id="group1050-135" transform="translate(0,2.25)">
				<title>Sheet.1050</title>
				<desc>OData</desc>
				<g id="shape1051-136">
					<title>Sheet.1051</title>
				</g>
				<g id="shape1050-139">
					<text x="12.03" y="226.59" class="st4">OData</text>				</g>
			</g>
		</g>
		<g id="group1052-143" transform="translate(291.047,-44.64)">
			<title>Subsystem.1052</title>
			<g id="group1053-144">
				<title>Sheet.1053</title>
				<g id="shape1054-145" transform="translate(2.88,2.88)">
					<title>Sheet.1054</title>
				</g>
				<g id="shape1053-147">
					<path d="M0 235.14 L26.72 235.14 L53.44 235.14 L53.44 214.89 L26.72 214.89 L0 214.89 L0 235.14 Z" class="st1"/>
				</g>
			</g>
			<g id="group1055-149" transform="translate(0,2.25)">
				<title>Sheet.1055</title>
				<desc>Logging</desc>
				<g id="shape1056-150">
					<title>Sheet.1056</title>
				</g>
				<g id="shape1055-153">
					<text x="11.3" y="226.59" class="st4">Logging</text>				</g>
			</g>
		</g>
		<g id="group1057-157" transform="translate(352.078,-44.64)">
			<title>Subsystem.1057</title>
			<g id="group1058-158">
				<title>Sheet.1058</title>
				<g id="shape1059-159" transform="translate(2.88,2.88)">
					<title>Sheet.1059</title>
				</g>
				<g id="shape1058-161">
					<path d="M0 235.14 L24.75 235.14 L49.5 235.14 L49.5 214.89 L24.75 214.89 L0 214.89 L0 235.14 Z" class="st1"/>
				</g>
			</g>
			<g id="group1060-163" transform="translate(0,-2.25)">
				<title>Sheet.1060</title>
				<desc>Conventions</desc>
				<g id="shape1061-164">
					<title>Sheet.1061</title>
				</g>
				<g id="shape1060-167">
					<text x="8.02" y="227.94" class="st6">Conventions</text>				</g>
			</g>
		</g>
		<g id="group1062-171" transform="translate(225.516,-118.89)">
			<title>Subsystem.1062</title>
			<g id="group1063-172">
				<title>Sheet.1063</title>
				<g id="shape1064-173" transform="translate(2.88,2.88)">
					<title>Sheet.1064</title>
				</g>
				<g id="shape1063-175">
					<path d="M0 235.14 L92.25 235.14 L184.5 235.14 L184.5 214.89 L92.25 214.89 L0 214.89 L0 235.14 Z" class="st1"/>
				</g>
			</g>
			<g id="group1065-177" transform="translate(0,2.25)">
				<title>Sheet.1065</title>
				<desc>AOP Interfaces</desc>
				<g id="shape1066-178">
					<title>Sheet.1066</title>
				</g>
				<g id="shape1065-181">
					<text x="59.04" y="226.89" class="st2">AOP Interfaces</text>				</g>
			</g>
		</g>
		<g id="group1067-185" transform="translate(225.516,-150.39)">
			<title>Subsystem.1067</title>
			<g id="group1068-186">
				<title>Sheet.1068</title>
				<g id="shape1069-187" transform="translate(2.88,2.88)">
					<title>Sheet.1069</title>
				</g>
				<g id="shape1068-189">
					<path d="M0 235.14 L26.72 235.14 L53.44 235.14 L53.44 214.89 L26.72 214.89 L0 214.89 L0 235.14 Z" class="st1"/>
				</g>
			</g>
			<g id="group1070-191" transform="translate(0,2.25)">
				<title>Sheet.1070</title>
				<desc>Metadata</desc>
				<g id="shape1071-192">
					<title>Sheet.1071</title>
				</g>
				<g id="shape1070-195">
					<text x="6.99" y="226.59" class="st4">Metadata</text>				</g>
			</g>
		</g>
		<g id="group1072-199" transform="translate(291.047,-150.39)">
			<title>Subsystem.1072</title>
			<g id="group1073-200">
				<title>Sheet.1073</title>
				<g id="shape1074-201" transform="translate(2.88,2.88)">
					<title>Sheet.1074</title>
				</g>
				<g id="shape1073-203">
					<path d="M0 235.14 L26.72 235.14 L53.44 235.14 L53.44 214.89 L26.72 214.89 L0 214.89 L0 235.14 Z" class="st1"/>
				</g>
			</g>
			<g id="group1075-205" transform="translate(0,2.25)">
				<title>Sheet.1075</title>
				<desc>Query</desc>
				<g id="shape1076-206">
					<title>Sheet.1076</title>
				</g>
				<g id="shape1075-209">
					<text x="14.36" y="226.59" class="st4">Query</text>				</g>
			</g>
		</g>
		<g id="group1077-213" transform="translate(356.578,-150.39)">
			<title>Subsystem.1077</title>
			<g id="group1078-214">
				<title>Sheet.1078</title>
				<g id="shape1079-215" transform="translate(2.88,2.88)">
					<title>Sheet.1079</title>
				</g>
				<g id="shape1078-217">
					<path d="M0 235.14 L26.72 235.14 L53.44 235.14 L53.44 214.89 L26.72 214.89 L0 214.89 L0 235.14 Z" class="st1"/>
				</g>
			</g>
			<g id="group1080-219" transform="translate(0,2.25)">
				<title>Sheet.1080</title>
				<desc>Submit</desc>
				<g id="shape1081-220">
					<title>Sheet.1081</title>
				</g>
				<g id="shape1080-223">
					<text x="12.5" y="226.59" class="st4">Submit</text>				</g>
			</g>
		</g>
		<g id="group1088-227" transform="translate(140.016,-118.89)">
			<title>Subsystem.1088</title>
			<g id="group1089-228">
				<title>Sheet.1089</title>
				<g id="shape1090-229" transform="translate(2.88,2.88)">
					<title>Sheet.1090</title>
				</g>
				<g id="shape1089-231">
					<path d="M0 235.14 L24.75 235.14 L49.5 235.14 L49.5 214.89 L24.75 214.89 L0 214.89 L0 235.14 Z" class="st1"/>
				</g>
			</g>
			<g id="group1091-233" transform="translate(0,2.25)">
				<title>Sheet.1091</title>
				<desc>OData</desc>
				<g id="shape1092-234">
					<title>Sheet.1092</title>
				</g>
				<g id="shape1091-237">
					<text x="12.03" y="226.59" class="st4">OData</text>				</g>
			</g>
		</g>
		<g id="group1101-241" transform="translate(448.547,-55.89)">
			<title>Subsystem.1101</title>
			<g id="group1102-242">
				<title>Sheet.1102</title>
				<g id="shape1103-243" transform="translate(2.88,2.88)">
					<title>Sheet.1103</title>
				</g>
				<g id="shape1102-245">
					<path d="M0 235.14 L24.75 235.14 L49.5 235.14 L49.5 214.89 L24.75 214.89 L0 214.89 L0 235.14 Z" class="st1"/>
				</g>
			</g>
			<g id="group1104-247" transform="translate(0,2.25)">
				<title>Sheet.1104</title>
				<desc>...</desc>
				<g id="shape1105-248">
					<title>Sheet.1105</title>
				</g>
				<g id="shape1104-251">
					<text x="21" y="226.59" class="st4">...</text>				</g>
			</g>
		</g>
		<g id="group1106-255" transform="translate(574.266,-36.765)">
			<title>Subsystem.1106</title>
			<g id="group1107-256">
				<title>Sheet.1107</title>
				<g id="shape1108-257" transform="translate(2.88,2.88)">
					<title>Sheet.1108</title>
				</g>
				<g id="shape1107-259">
					<path d="M0 235.14 L33.89 235.14 L67.78 235.14 L67.78 67.51 L33.89 67.51 L0 67.51 L0 235.14 Z" class="st3"/>
				</g>
			</g>
			<g id="group1109-261" transform="translate(0,-145.125)">
				<title>Sheet.1109</title>
				<desc>Data Source</desc>
				<g id="shape1110-262">
					<title>Sheet.1110</title>
				</g>
				<g id="shape1109-265">
					<text x="6" y="226.89" class="st2">Data Source</text>				</g>
			</g>
		</g>
		<g id="group1111-269" transform="translate(583.266,-151.515)">
			<title>Subsystem.1111</title>
			<g id="group1112-270">
				<title>Sheet.1112</title>
				<g id="shape1113-271" transform="translate(2.88,2.88)">
					<title>Sheet.1113</title>
				</g>
				<g id="shape1112-273">
					<path d="M0 235.14 L24.75 235.14 L49.5 235.14 L49.5 214.89 L24.75 214.89 L0 214.89 L0 235.14 Z" class="st1"/>
				</g>
			</g>
			<g id="group1114-275" transform="translate(0,-2.25)">
				<title>Sheet.1114</title>
				<desc>Database</desc>
				<g id="shape1115-276">
					<title>Sheet.1115</title>
				</g>
				<g id="shape1114-279">
					<text x="8.02" y="228.54" class="st5">Database</text>				</g>
			</g>
		</g>
		<g id="group1116-283" transform="translate(583.266,-111.015)">
			<title>Subsystem.1116</title>
			<g id="group1117-284">
				<title>Sheet.1117</title>
				<g id="shape1118-285" transform="translate(2.88,2.88)">
					<title>Sheet.1118</title>
				</g>
				<g id="shape1117-287">
					<path d="M0 235.14 L24.75 235.14 L49.5 235.14 L49.5 205.89 L24.75 205.89 L0 205.89 L0 235.14 Z" class="st1"/>
				</g>
			</g>
			<g id="group1119-289" transform="translate(0,2.25)">
				<title>Sheet.1119</title>
				<desc>REST Service</desc>
				<g id="shape1120-290">
					<title>Sheet.1120</title>
				</g>
				<g id="shape1119-293">
					<text x="16.05" y="216.99" class="st5">REST <tspan x="11.96" dy="1.2em" class="st7">Service</tspan></text>				</g>
			</g>
		</g>
		<g id="group1121-298" transform="translate(583.266,-70.515)">
			<title>Subsystem.1121</title>
			<g id="group1122-299">
				<title>Sheet.1122</title>
				<g id="shape1123-300" transform="translate(2.88,2.88)">
					<title>Sheet.1123</title>
				</g>
				<g id="shape1122-302">
					<path d="M0 235.14 L24.75 235.14 L49.5 235.14 L49.5 205.89 L24.75 205.89 L0 205.89 L0 235.14 Z" class="st1"/>
				</g>
			</g>
			<g id="group1124-304" transform="translate(0,2.25)">
				<title>Sheet.1124</title>
				<desc>HTTP Service</desc>
				<g id="shape1125-305">
					<title>Sheet.1125</title>
				</g>
				<g id="shape1124-308">
					<text x="14.28" y="216.69" class="st4">HTTP <tspan x="10.36" dy="1.2em" class="st7">Service</tspan></text>				</g>
			</g>
		</g>
		<g id="group1126-313" transform="translate(0.375,-36.765)">
			<title>Subsystem.1126</title>
			<g id="group1127-314">
				<title>Sheet.1127</title>
				<g id="shape1128-315" transform="translate(2.88,2.88)">
					<title>Sheet.1128</title>
				</g>
				<g id="shape1127-317">
					<path d="M0 235.14 L33.89 235.14 L67.78 235.14 L67.78 67.51 L33.89 67.51 L0 67.51 L0 235.14 Z" class="st3"/>
				</g>
			</g>
			<g id="group1129-319" transform="translate(0,-145.125)">
				<title>Sheet.1129</title>
				<desc>Client Proxy</desc>
				<g id="shape1130-320">
					<title>Sheet.1130</title>
				</g>
				<g id="shape1129-323">
					<text x="6" y="226.89" class="st2">Client Proxy</text>				</g>
			</g>
		</g>
		<g id="group1131-327" transform="translate(9.375,-151.515)">
			<title>Subsystem.1131</title>
			<g id="group1132-328">
				<title>Sheet.1132</title>
				<g id="shape1133-329" transform="translate(2.88,2.88)">
					<title>Sheet.1133</title>
				</g>
				<g id="shape1132-331">
					<path d="M0 235.14 L24.75 235.14 L49.5 235.14 L49.5 214.89 L24.75 214.89 L0 214.89 L0 235.14 Z" class="st1"/>
				</g>
			</g>
			<g id="group1134-333" transform="translate(0,-2.25)">
				<title>Sheet.1134</title>
				<desc>Excel</desc>
				<g id="shape1135-334">
					<title>Sheet.1135</title>
				</g>
				<g id="shape1134-337">
					<text x="15.64" y="228.54" class="st5">Excel </text>				</g>
			</g>
		</g>
		<g id="group1136-341" transform="translate(9.375,-111.015)">
			<title>Subsystem.1136</title>
			<g id="group1137-342">
				<title>Sheet.1137</title>
				<g id="shape1138-343" transform="translate(2.88,2.88)">
					<title>Sheet.1138</title>
				</g>
				<g id="shape1137-345">
					<path d="M0 235.14 L24.75 235.14 L49.5 235.14 L49.5 205.89 L24.75 205.89 L0 205.89 L0 235.14 Z" class="st1"/>
				</g>
			</g>
			<g id="group1139-347" transform="translate(0,2.25)">
				<title>Sheet.1139</title>
				<desc>OData Client</desc>
				<g id="shape1140-348">
					<title>Sheet.1140</title>
				</g>
				<g id="shape1139-351">
					<text x="13.44" y="216.99" class="st5">OData <tspan x="14.41" dy="1.2em" class="st7">Client</tspan></text>				</g>
			</g>
		</g>
		<g id="group1141-356" transform="translate(9.375,-70.515)">
			<title>Subsystem.1141</title>
			<g id="group1142-357">
				<title>Sheet.1142</title>
				<g id="shape1143-358" transform="translate(2.88,2.88)">
					<title>Sheet.1143</title>
				</g>
				<g id="shape1142-360">
					<path d="M0 235.14 L24.75 235.14 L49.5 235.14 L49.5 205.89 L24.75 205.89 L0 205.89 L0 235.14 Z" class="st1"/>
				</g>
			</g>
			<g id="group1144-362" transform="translate(0,2.25)">
				<title>Sheet.1144</title>
				<desc>JavaScript Client</desc>
				<g id="shape1145-363">
					<title>Sheet.1145</title>
				</g>
				<g id="shape1144-366">
					<text x="6.93" y="216.39" class="st5">JavaScript <tspan x="14.41" dy="1.312em" class="st7">Client</tspan></text>				</g>
			</g>
		</g>
		<g id="group1146-371" transform="translate(140.016,-87.39)">
			<title>Subsystem.1146</title>
			<g id="group1147-372">
				<title>Sheet.1147</title>
				<g id="shape1148-373" transform="translate(2.88,2.88)">
					<title>Sheet.1148</title>
				</g>
				<g id="shape1147-375">
					<path d="M0 235.14 L24.75 235.14 L49.5 235.14 L49.5 214.89 L24.75 214.89 L0 214.89 L0 235.14 Z" class="st1"/>
				</g>
			</g>
			<g id="group1149-377" transform="translate(0,2.25)">
				<title>Sheet.1149</title>
				<desc>...</desc>
				<g id="shape1150-378">
					<title>Sheet.1150</title>
				</g>
				<g id="shape1149-381">
					<text x="21" y="226.59" class="st4">...</text>				</g>
			</g>
		</g>
		<g id="shape1082-385" transform="translate(258.141,-112.14)">
			<title>Dynamic connector.1082</title>
			<path d="M9 237.39 L9 250.89" class="st8"/>
		</g>
		<g id="shape1083-394" transform="translate(308.766,-112.14)">
			<title>Dynamic connector.1083</title>
			<path d="M9 237.39 L9 250.89" class="st8"/>
		</g>
		<g id="shape1084-401" transform="translate(359.391,-112.14)">
			<title>Dynamic connector.1084</title>
			<path d="M9 237.39 L9 250.89" class="st8"/>
		</g>
		<g id="shape1085-408" transform="translate(68.0156,-107.64)">
			<title>2-D double.1085</title>
			<desc>Protocol</desc>
			<path d="M7.31 213.2 L7.31 205.89 L0 220.51 L7.31 235.14 L7.31 227.83 L42.19 227.83 L42.19 235.14 L49.5 220.51 L42.19
						 205.89 L42.19 213.2 L7.31 213.2 Z" class="st10"/>
			<text x="11.01" y="222.91" class="st11">Protocol</text>		</g>
		<g id="shape1086-411" transform="translate(198.516,-151.515)">
			<title>Dynamic connector.1086</title>
			<path d="M0 226.14 L18 226.14" class="st8"/>
		</g>
		<g id="shape1087-418" transform="translate(419.016,-152.148)">
			<title>Dynamic connector.1087</title>
			<path d="M0 226.35 L20.25 225.93" class="st8"/>
		</g>
		<g id="shape1098-425" transform="translate(352.656,66.75) rotate(90)">
			<title>Sheet.1098</title>
			<desc>Service Interface</desc>
			<rect x="0" y="217.14" width="92.25" height="18" class="st1"/>
			<text x="5.35" y="229.74" class="st12">Service Interface</text>		</g>
		<g id="shape1099-428" transform="translate(739.656,67.875) rotate(90)">
			<title>Sheet.1099</title>
			<desc>Service Proxy</desc>
			<rect x="0" y="217.14" width="92.25" height="18" class="st1"/>
			<text x="13.66" y="229.74" class="st12">Service Proxy</text>		</g>
		<g id="shape1100-431" transform="translate(522.516,-106.515)">
			<title>2-D double.1100</title>
			<desc>Protocol</desc>
			<path d="M7.31 213.2 L7.31 205.89 L0 220.51 L7.31 235.14 L7.31 227.83 L42.19 227.83 L42.19 235.14 L49.5 220.51 L42.19
						 205.89 L42.19 213.2 L7.31 213.2 Z" class="st10"/>
			<text x="11.01" y="222.91" class="st11">Protocol</text>		</g>
	</g>
</svg>
